{
    "asset": {
        "version": "2.0"
    },
    "scene": 0,
    "scenes": [
        {
            "nodes": [
                0
            ]
        }
    ],
    "nodes": [
        {
            "children": [
                1,
                3
            ],
            "matrix": [
                0.001,
                0,
                0,
                0,
                0,
                0.001,
                0,
                0,
                0,
                0,
                0.001,
                0,
                0,
                0,
                0,
                1
            ],
            "name": "ÅÚËþAtAtA",
            "extras": {
                "Dtk_PrototypeID": 1
            }
        },
        {
            "children": [
                2
            ],
            "matrix": [
                0.1061127038,
                -0.994354109,
                1.484500979e-16,
                0,
                0.994354109,
                0.1061127038,
                -1.630706213e-17,
                0,
                4.625529716e-19,
                1.493423513e-16,
                1,
                0,
                -43.11869704,
                -16.16551852,
                -14,
                1
            ],
            "name": "NAUO2",
            "extras": {
                "Dtk_PrototypeID": 2
            }
        },
        {
            "mesh": 0,
            "name": "Mesh"
        },
        {
            "children": [
                4,
                5,
                6
            ],
            "matrix": [
                1,
                0,
                0,
                0,
                0,
                1,
                0,
                0,
                0,
                0,
                1,
                0,
                -6.566995476,
                -15.15325402,
                0,
                1
            ],
            "name": "NAUO1",
            "extras": {
                "Dtk_PrototypeID": 4
            }
        },
        {
            "mesh": 1,
            "name": "Mesh"
        },
        {
            "mesh": 2,
            "name": "Mesh"
        },
        {
            "mesh": 3,
            "name": "Mesh"
        }
    ],
    "meshes": [
        {
            "primitives": [
                {
                    "attributes": {
                        "NORMAL": 2,
                        "POSITION": 1
                    },
                    "indices": 0,
                    "mode": 4
                }
            ],
            "extras": {
                "Dtk_ID": 2254
            }
        },
        {
            "primitives": [
                {
                    "attributes": {
                        "NORMAL": 5,
                        "POSITION": 4
                    },
                    "indices": 3,
                    "mode": 4
                }
            ],
            "extras": {
                "Dtk_ID": 5386
            }
        },
        {
            "primitives": [
                {
                    "attributes": {
                        "NORMAL": 8,
                        "POSITION": 7
                    },
                    "indices": 6,
                    "mode": 4
                }
            ],
            "extras": {
                "Dtk_ID": 3994
            }
        },
        {
            "primitives": [
                {
                    "attributes": {
                        "NORMAL": 11,
                        "POSITION": 10
                    },
                    "indices": 9,
                    "mode": 4
                }
            ],
            "extras": {
                "Dtk_ID": 7856
            }
        }
    ],
    "accessors": [
        {
            "bufferView": 0,
            "byteOffset": 0,
            "componentType": 5123,
            "count": 7356,
            "max": [
                2531
            ],
            "min": [
                0
            ],
            "type": "SCALAR"
        },
        {
            "bufferView": 1,
            "byteOffset": 0,
            "componentType": 5126,
            "count": 2532,
            "max": [
                1.681721926,
                78.74092102,
                20.93751717
            ],
            "min": [
                -1.681750655,
                32.61592484,
                7.062516689
            ],
            "type": "VEC3"
        },
        {
            "bufferView": 1,
            "byteOffset": 30384,
            "componentType": 5126,
            "count": 2532,
            "max": [
                1,
                1,
                1
            ],
            "min": [
                -1,
                -1,
                -1
            ],
            "type": "VEC3"
        },
        {
            "bufferView": 2,
            "byteOffset": 0,
            "componentType": 5123,
            "count": 25506,
            "max": [
                6148
            ],
            "min": [
                0
            ],
            "type": "SCALAR"
        },
        {
            "bufferView": 3,
            "byteOffset": 0,
            "componentType": 5126,
            "count": 6149,
            "max": [
                12.5625,
                8.78125,
                12.5625
            ],
            "min": [
                -20.9375,
                0,
                -12.5625
            ],
            "type": "VEC3"
        },
        {
            "bufferView": 3,
            "byteOffset": 73788,
            "componentType": 5126,
            "count": 6149,
            "max": [
                1,
                1,
                1
            ],
            "min": [
                -1,
                -1,
                -1
            ],
            "type": "VEC3"
        },
        {
            "bufferView": 4,
            "byteOffset": 0,
            "componentType": 5123,
            "count": 36,
            "max": [
                23
            ],
            "min": [
                0
            ],
            "type": "SCALAR"
        },
        {
            "bufferView": 5,
            "byteOffset": 0,
            "componentType": 5126,
            "count": 24,
            "max": [
                6.726388931,
                1.625,
                10.60999966
            ],
            "min": [
                -6.726388931,
                0.625,
                9.520000458
            ],
            "type": "VEC3"
        },
        {
            "bufferView": 5,
            "byteOffset": 288,
            "componentType": 5126,
            "count": 24,
            "max": [
                1,
                1,
                1
            ],
            "min": [
                -1,
                -1,
                -1
            ],
            "type": "VEC3"
        },
        {
            "bufferView": 6,
            "byteOffset": 0,
            "componentType": 5123,
            "count": 36,
            "max": [
                23
            ],
            "min": [
                0
            ],
            "type": "SCALAR"
        },
        {
            "bufferView": 7,
            "byteOffset": 0,
            "componentType": 5126,
            "count": 24,
            "max": [
                6.726388931,
                1.625,
                -9.520000458
            ],
            "min": [
                -6.726388931,
                0.625,
                -10.60999966
            ],
            "type": "VEC3"
        },
        {
            "bufferView": 7,
            "byteOffset": 288,
            "componentType": 5126,
            "count": 24,
            "max": [
                1,
                1,
                1
            ],
            "min": [
                -1,
                -1,
                -1
            ],
            "type": "VEC3"
        }
    ],
    "bufferViews": [
        {
            "buffer": 0,
            "byteOffset": 0,
            "byteLength": 14712,
            "target": 34963
        },
        {
            "buffer": 0,
            "byteOffset": 14712,
            "byteLength": 60768,
            "byteStride": 12,
            "target": 34962
        },
        {
            "buffer": 0,
            "byteOffset": 75480,
            "byteLength": 51012,
            "target": 34963
        },
        {
            "buffer": 0,
            "byteOffset": 126492,
            "byteLength": 147576,
            "byteStride": 12,
            "target": 34962
        },
        {
            "buffer": 0,
            "byteOffset": 274068,
            "byteLength": 72,
            "target": 34963
        },
        {
            "buffer": 0,
            "byteOffset": 274140,
            "byteLength": 576,
            "byteStride": 12,
            "target": 34962
        },
        {
            "buffer": 0,
            "byteOffset": 274716,
            "byteLength": 72,
            "target": 34963
        },
        {
            "buffer": 0,
            "byteOffset": 274788,
            "byteLength": 576,
            "byteStride": 12,
            "target": 34962
        }
    ],
    "buffers": [
        {
            "byteLength": 275364,
            "uri": "炮塔A.bin"
        }
    ]
}